<?xml version="1.0" encoding="UTF-8"?><svg id="a" xmlns="http://www.w3.org/2000/svg" viewBox="0 0 394.3 440.95"><defs><style>.b{fill:#040000;}.c{fill:#d22628;}</style></defs><path class="c" d="M373.48,189.02L54.85,5.11C37.62-5.14,15.35,.52,5.1,17.75,1.72,23.44-.05,29.95,0,36.56V180.15l9.68-7.26,35.49-20.97V84.16c.09-10.25,8.47-18.48,18.71-18.39,3.05,.03,6.04,.8,8.71,2.26l59.69,34.69,80.66,47.59,95.99,54.85c8.69,5.43,11.32,16.88,5.89,25.57-1.49,2.39-3.51,4.4-5.89,5.89l-94.38,54.85-80.66,47.59-58.88,33.88c-9,4.9-20.27,1.58-25.17-7.42-1.46-2.68-2.23-5.67-2.26-8.71v-68.56l-37.91-20.17c-3.33-1.92-6.33-4.38-8.87-7.26v143.58c-.14,20.05,15.99,36.41,36.04,36.56,6.62,.05,13.12-1.72,18.81-5.1L378.32,251.94c16.61-11.22,20.99-33.78,9.77-50.4-3.65-5.41-8.7-9.74-14.61-12.52Z"/><path class="b" d="M82.28,205.15l100.02-55.66-49.21-25.81-68.56,39.53-43.56,25.81c-17.37,10-23.35,32.19-13.35,49.57,3.19,5.55,7.8,10.16,13.35,13.35l45.17,26.62,68.56,39.53,47.59-25.81-100.02-55.66c-8.69-5.43-11.32-16.88-5.89-25.57,1.49-2.39,3.51-4.4,5.89-5.89Z"/></svg>